<?xml version="1.0" encoding="utf-8"?>
<!-- Generator: Adobe Illustrator 24.0.0, SVG Export Plug-In . SVG Version: 6.00 Build 0)  -->
<svg version="1.1" xmlns="http://www.w3.org/2000/svg" xmlns:xlink="http://www.w3.org/1999/xlink" x="0px" y="0px"
	 viewBox="0 0 256 256" enable-background="new 0 0 256 256" xml:space="preserve">
<g id="Layer_2" display="none">
	<rect x="-92" y="-2472" display="inline" fill="#FFFFFF" width="1786" height="5896"/>
</g>
<g id="Layer_1">
	<g>
		<path fill="#C5E5FE" d="M95.049,208.088c-10.575-4.349-20.069-10.686-28.217-18.834c-0.976-0.976-0.976-2.559,0-3.535
			c0.976-0.977,2.56-0.977,3.535,0c7.679,7.679,16.623,13.649,26.583,17.746c1.277,0.525,1.887,1.986,1.361,3.263
			C97.787,208.004,96.326,208.613,95.049,208.088z"/>
		<path fill="#AFAFAF" d="M151.84,181.466v20.41c0,3.42-2.79,6.21-6.22,6.21h-35.24c-3.43,0-6.22-2.79-6.22-6.21v-20.41H151.84z"/>
		<path fill="#F0C020" d="M177.929,122.013c0,19.561-10.185,31.673-18.243,38.426c-4.912,4.116-7.847,10.135-7.847,16.552v4.477
			h-47.677v-4.29c0-6.529-2.96-12.659-7.959-16.85c-8.381-7.026-18.964-19.772-18.081-40.465
			c1.069-25.804,22.322-46.994,48.411-47.752C154.501,71.264,177.929,93.784,177.929,122.013z"/>
		<path fill="#F9E5AF" d="M161.945,140.854c-1.253-0.58-1.798-2.066-1.218-3.319c0.636-1.375,1.183-2.808,1.625-4.259
			c0.402-1.321,1.8-2.063,3.12-1.664c1.321,0.402,2.066,1.799,1.664,3.12c-0.509,1.671-1.138,3.321-1.871,4.904
			C164.683,140.892,163.193,141.433,161.945,140.854z M166.261,126.66c-1.38-0.047-2.46-1.205-2.413-2.584
			c0.731-21.277-16.584-37.959-36.949-37.315c-1.382,0.014-2.533-1.042-2.576-2.422c-0.042-1.38,1.042-2.533,2.422-2.576
			c23.352-0.697,42.927,18.436,42.1,42.485C168.798,125.623,167.647,126.707,166.261,126.66z"/>
		<path fill="#72C2E9" d="M243,112.086h-20.34c-2.43-14.59-8.17-28.06-16.41-39.62l14.38-14.38c1.96-1.96,1.96-5.12,0-7.08
			l-15.55-15.55c-1.96-1.96-5.12-1.96-7.08,0l-14.38,14.38c-11.56-8.24-25.03-13.98-39.62-16.41v-20.34c0-2.76-2.24-5-5-5h-22
			c-2.76,0-5,2.24-5,5v20.34c-14.59,2.43-28.06,8.17-39.62,16.41L58,35.456c-1.96-1.96-5.12-1.96-7.08,0l-15.55,15.55
			c-1.96,1.96-1.96,5.12,0,7.08l14.38,14.38c-8.24,11.56-13.98,25.03-16.41,39.62H13c-2.76,0-5,2.24-5,5v22c0,2.76,2.24,5,5,5h20.34
			c2.43,14.59,8.17,28.06,16.41,39.62l-14.38,14.38c-1.96,1.96-1.96,5.12,0,7.08l15.55,15.55c1.96,1.96,5.12,1.96,7.08,0
			l14.38-14.38c11.56,8.24,25.03,13.98,39.62,16.41v20.34c0,2.76,2.24,5,5,5h22c2.76,0,5-2.24,5-5v-20.34
			c14.59-2.43,28.06-8.17,39.62-16.41l14.38,14.38c1.96,1.96,5.12,1.96,7.08,0l15.55-15.55c1.96-1.96,1.96-5.12,0-7.08l-14.38-14.38
			c8.24-11.56,13.98-25.03,16.41-39.62H243c2.76,0,5-2.24,5-5v-22C248,114.326,245.76,112.086,243,112.086z M151.84,196.046v5.83
			c0,3.42-2.79,6.21-6.22,6.21h-35.24c-3.43,0-6.22-2.79-6.22-6.21v-5.83c-28.05-9.84-48.16-36.55-48.16-67.96
			c0-39.73,32.2-72,72-72c39.78,0,72,32.25,72,72C200,159.466,179.91,186.196,151.84,196.046z"/>
		<path fill="#C5E5FE" d="M157.688,206.727c-0.525-1.277,0.084-2.738,1.361-3.263c1.83-0.752,3.652-1.582,5.417-2.464
			c1.236-0.619,2.736-0.117,3.354,1.117c0.618,1.235,0.118,2.737-1.117,3.354c-1.875,0.938-3.81,1.818-5.752,2.617
			C159.674,208.613,158.213,208.004,157.688,206.727z M172.152,199.616c-0.761-1.152-0.444-2.703,0.708-3.463
			c43.08-28.453,49.245-89.214,12.771-125.698c-0.976-0.977-0.976-2.56,0-3.536c0.977-0.977,2.559-0.976,3.536,0
			c38.719,38.731,32.157,103.224-13.552,133.405C174.464,201.085,172.913,200.768,172.152,199.616z"/>
		<g>
			<path d="M123.435,124.062l1.508-9.875c0.208-1.365-0.729-2.641-2.094-2.849c-1.365-0.208-2.641,0.729-2.849,2.094l-1.508,9.875
				c-0.208,1.365,0.729,2.64,2.094,2.849C121.956,126.365,123.227,125.423,123.435,124.062z"/>
			<path d="M136,124.062l1.507-9.875c0.208-1.365-0.729-2.641-2.094-2.849c-1.365-0.208-2.641,0.729-2.849,2.094l-1.507,9.875
				c-0.231,1.513,0.939,2.878,2.474,2.878C134.746,126.185,135.811,125.299,136,124.062z"/>
			<path d="M83.41,94.566c0,0.01-0.01,0.01-0.01,0.01c-0.732,1.192-0.357,2.714,0.81,3.45c1.123,0.691,2.681,0.41,3.44-0.81
				c0.73-1.17,0.37-2.72-0.81-3.44C85.717,93.057,84.141,93.381,83.41,94.566z"/>
			<path d="M40.06,166.736c1.258-0.508,1.898-1.949,1.37-3.26c0,0,0-0.01-0.01-0.01c-0.51-1.24-2-1.87-3.25-1.35
				c-1.252,0.505-1.901,1.944-1.37,3.26C37.352,166.707,38.87,167.251,40.06,166.736z"/>
			<path d="M243,109.586h-18.25c-2.5-13.25-7.63-25.64-15.25-36.83l12.9-12.91c2.927-2.907,2.928-7.692,0-10.6l-15.56-15.56
				c-2.911-2.931-7.687-2.934-10.6,0l-12.91,12.9c-11.19-7.62-23.58-12.75-36.83-15.25v-18.25c0-4.13-3.37-7.5-7.5-7.5h-22
				c-4.13,0-7.5,3.37-7.5,7.5v18.25c-13.25,2.5-25.64,7.63-36.83,15.25l-12.91-12.9c-2.911-2.931-7.687-2.934-10.6,0L33.6,49.246
				c-2.892,2.872-2.964,7.636,0,10.6l12.9,12.91c-7.62,11.19-12.75,23.58-15.26,36.83H13c-4.13,0-7.5,3.37-7.5,7.5v22
				c0,4.13,3.37,7.5,7.5,7.5h18.24c0.58,3.06,1.32,6.12,2.18,9.1c0.38,1.29,1.8,2.08,3.1,1.7c1.32-0.38,2.09-1.77,1.7-3.1
				c-1-3.46-1.82-7.03-2.41-10.61c-0.21-1.21-1.24-2.09-2.47-2.09H13c-1.38,0-2.5-1.13-2.5-2.5v-22c0-1.38,1.12-2.5,2.5-2.5h20.34
				c1.23,0,2.26-0.88,2.47-2.09c2.29-13.79,7.82-27.14,15.98-38.58c0.71-1,0.59-2.35-0.27-3.22l-14.39-14.38
				c-0.977-0.997-0.977-2.543,0-3.54l15.56-15.56c0.997-0.977,2.543-0.977,3.54,0l14.38,14.39c0.84,0.84,2.25,0.96,3.22,0.26
				c11.44-8.15,24.78-13.68,38.58-15.97c1.21-0.21,2.09-1.24,2.09-2.47v-20.34c0-1.38,1.12-2.5,2.5-2.5h22c1.38,0,2.5,1.12,2.5,2.5
				v20.34c0,1.23,0.88,2.26,2.09,2.47c13.8,2.29,27.14,7.82,38.58,15.97c0.97,0.7,2.38,0.58,3.22-0.26l14.38-14.39
				c0.988-0.968,2.534-0.985,3.54,0l15.56,15.56c0.971,0.991,0.971,2.549,0,3.54l-14.39,14.38c-0.86,0.87-0.98,2.22-0.27,3.22
				c8.16,11.44,13.69,24.78,15.98,38.58c0.21,1.21,1.24,2.09,2.47,2.09H243c1.38,0,2.5,1.12,2.5,2.5v22c0,1.37-1.12,2.5-2.5,2.5
				h-20.34c-1.23,0-2.26,0.88-2.47,2.09c-2.29,13.8-7.82,27.14-15.98,38.58c-0.71,1-0.59,2.35,0.27,3.22l14.39,14.38
				c0.971,0.991,0.971,2.549,0,3.54l-15.56,15.56c-0.99,0.969-2.536,0.984-3.54,0l-14.38-14.39c-0.85-0.84-2.25-0.96-3.22-0.27
				c-11.44,8.16-24.78,13.69-38.58,15.98c-1.21,0.2-2.09,1.24-2.09,2.47v20.34c0,1.38-1.12,2.5-2.5,2.5h-22
				c-1.38,0-2.5-1.12-2.5-2.5v-20.34c0-1.23-0.88-2.27-2.09-2.47c-13.8-2.29-27.14-7.82-38.58-15.98c-0.97-0.69-2.38-0.57-3.22,0.27
				l-14.38,14.39c-0.997,0.977-2.543,0.977-3.54,0l-15.56-15.56c-0.977-0.997-0.977-2.543,0-3.54l14.39-14.38
				c0.86-0.87,0.98-2.22,0.27-3.22c-2.27-3.17-4.35-6.53-6.21-9.97c-0.657-1.254-2.222-1.662-3.38-1.02
				c-1.173,0.617-1.699,2.127-1.02,3.38c1.61,3,3.4,5.95,5.32,8.77l-12.9,12.91c-2.892,2.872-2.964,7.636,0,10.6l15.56,15.56
				c2.911,2.932,7.687,2.934,10.6,0l12.91-12.9c11.18,7.62,23.58,12.75,36.83,15.25v18.25c0,4.13,3.37,7.5,7.5,7.5h22
				c4.13,0,7.5-3.37,7.5-7.5v-18.25c13.25-2.5,25.64-7.63,36.83-15.25l12.91,12.9c2.911,2.932,7.687,2.934,10.6,0l15.56-15.56
				c2.927-2.907,2.928-7.692,0-10.6l-12.9-12.91c7.62-11.19,12.75-23.58,15.25-36.83H243c4.14,0,7.5-3.37,7.5-7.5v-22
				C250.5,112.956,247.14,109.586,243,109.586z"/>
			<path d="M198.47,143.136c-1.32-0.33-2.7,0.5-3.03,1.82c-0.334,1.358,0.491,2.703,1.82,3.03c1.314,0.327,2.687-0.459,3.03-1.82
				C200.624,144.806,199.796,143.463,198.47,143.136z"/>
			<path d="M202.09,135.986c4.605-44.689-30.321-82.4-74.09-82.4c-41.157,0-74.5,33.351-74.5,74.5
				c0,31.734,19.825,58.984,48.16,69.698v4.092c0,4.803,3.912,8.71,8.72,8.71h35.24c4.808,0,8.72-3.907,8.72-8.71v-4.106
				c19.875-7.513,35.124-22.9,42.75-41.774c0.527-1.307-0.105-2.745-1.38-3.26c-1.25-0.51-2.75,0.14-3.25,1.38
				c-6.98,17.28-20.88,31.24-38.12,38.31c0-13.602,0-9.759,0-15.44c0-5.59,2.53-10.93,6.95-14.63c8.74-7.29,19.16-20.2,19.14-40.34
				c-0.01-28.51-23.131-53.03-53.97-52.41c-14.423,0.429-27.421,6.769-36.68,16.66c-0.957,1.02-0.894,2.589,0.11,3.53
				c0.97,0.91,2.63,0.85,3.54-0.11c8.76-9.36,20.54-14.71,33.18-15.08c26.485-0.829,48.82,20.501,48.82,47.41
				c-0.01,14.53-5.85,26.82-17.35,36.51c-5.55,4.65-8.74,11.38-8.74,18.46v1.98h-10.618l0.684-31.16
				c0.167-1.972,1.31-3.698,3.063-4.624l8.488-4.482c4.73-2.498,7.004-8.727,5.29-14.488c-1.613-5.417-6.162-8.453-11.87-7.921
				c-1.375,0.128-2.386,1.346-2.258,2.721c0.128,1.375,1.343,2.38,2.721,2.258c4.493-0.419,6.076,2.558,6.615,4.369
				c0.903,3.035,0.091,7.097-2.832,8.641l-8.488,4.482c-3.631,1.918-5.654,5.658-5.726,8.864l-0.688,31.341h-11.442l-0.687-31.341
				c-0.001-0.044-0.003-0.088-0.006-0.132c-0.28-3.723-2.417-6.987-5.719-8.731l-8.488-4.482c-2.796-1.477-3.719-5.381-2.996-8.302
				c0.445-1.798,1.864-4.814,6.365-4.816c1.38,0,2.499-1.121,2.499-2.501c0-1.38-1.12-2.499-2.5-2.499c0,0-0.001,0-0.001,0
				c-5.603,0.003-9.901,3.304-11.216,8.615c-1.397,5.643,0.922,11.5,5.514,13.925l8.487,4.482c1.754,0.926,2.896,2.652,3.063,4.625
				l0.683,31.16H106.66v-1.79c0-7.21-3.22-14.05-8.85-18.77c-12.001-10.101-17.79-22.941-17.19-38.43c0.2-4.87,1.16-9.66,2.86-14.25
				c0.48-1.29-0.18-2.73-1.48-3.21c-1.26-0.47-2.74,0.22-3.21,1.48c-1.88,5.07-2.94,10.37-3.17,15.76
				c-0.622,17.332,6.065,31.715,18.98,42.49c4.49,3.76,7.06,9.21,7.06,14.93c0,5.42,0,9.996,0,15.25
				c-26.23-10.75-43.16-36-43.16-64.34c0-38.391,31.071-69.5,69.5-69.5c41.36,0,73.513,35.851,69.11,76.87
				c-0.14,1.37,0.86,2.61,2.23,2.75C200.71,138.356,201.94,137.346,202.09,135.986z M106.66,183.966h42.68v8.31h-15.058
				c-1.381,0-2.5,1.119-2.5,2.5s1.119,2.5,2.5,2.5h15.058v4.6c0,2.046-1.668,3.71-3.72,3.71h-35.24c-2.051,0-3.72-1.664-3.72-3.71
				V183.966z"/>
		</g>
	</g>
</g>
</svg>
